<svg width="15" height="9" viewBox="0 0 15 9" fill="none" xmlns="http://www.w3.org/2000/svg">
<path d="M15 8.125C15 7.95924 14.9342 7.80027 14.8169 7.68306C14.6997 7.56585 14.5408 7.5 14.375 7.5H10.625C10.4592 7.5 10.3003 7.56585 10.1831 7.68306C10.0658 7.80027 10 7.95924 10 8.125C10 8.29076 10.0658 8.44973 10.1831 8.56694C10.3003 8.68415 10.4592 8.75 10.625 8.75H14.375C14.5408 8.75 14.6997 8.68415 14.8169 8.56694C14.9342 8.44973 15 8.29076 15 8.125ZM15 4.375C15 4.20924 14.9342 4.05027 14.8169 3.93306C14.6997 3.81585 14.5408 3.75 14.375 3.75H5.625C5.45924 3.75 5.30027 3.81585 5.18306 3.93306C5.06585 4.05027 5 4.20924 5 4.375C5 4.54076 5.06585 4.69973 5.18306 4.81694C5.30027 4.93415 5.45924 5 5.625 5H14.375C14.5408 5 14.6997 4.93415 14.8169 4.81694C14.9342 4.69973 15 4.54076 15 4.375ZM15 0.625C15 0.45924 14.9342 0.300269 14.8169 0.183058C14.6997 0.0658481 14.5408 0 14.375 0H0.625C0.45924 0 0.300269 0.0658481 0.183058 0.183058C0.0658481 0.300269 0 0.45924 0 0.625C0 0.79076 0.0658481 0.949731 0.183058 1.06694C0.300269 1.18415 0.45924 1.25 0.625 1.25H14.375C14.5408 1.25 14.6997 1.18415 14.8169 1.06694C14.9342 0.949731 15 0.79076 15 0.625Z" fill="#1CC2C1"/>
</svg>
