<svg width="149" height="43" viewBox="0 0 149 43" fill="none" xmlns="http://www.w3.org/2000/svg">
<path d="M19.413 0.0629363C23.5865 0.0629363 26.959 1.38462 29.5306 4.02797C32.1021 6.62937 33.3879 10.2797 33.3879 14.979V35.4336H24.535V16.1748C24.535 13.4056 23.8394 11.2867 22.4483 9.81818C21.0571 8.30769 19.1601 7.55245 16.7572 7.55245C14.3121 7.55245 12.3729 8.30769 10.9396 9.81818C9.54842 11.2867 8.85284 13.4056 8.85284 16.1748V35.4336H0V0.566434H8.85284V4.90909C10.0332 3.3986 11.5298 2.22378 13.3425 1.38462C15.1974 0.503496 17.2209 0.0629363 19.413 0.0629363Z" fill="white"/>
<path d="M71.5267 17.2448C71.5267 18.5035 71.4424 19.6364 71.2738 20.6434H45.6638C45.8745 23.1608 46.7598 25.1329 48.3196 26.5594C49.8794 27.986 51.7975 28.6993 54.074 28.6993C57.3622 28.6993 59.7018 27.2937 61.093 24.4825H70.6414C69.6297 27.8392 67.6905 30.6084 64.8238 32.7902C61.9572 34.9301 58.4372 36 54.2637 36C50.8912 36 47.8559 35.2657 45.1579 33.7972C42.502 32.2867 40.4153 30.1678 38.8977 27.4406C37.4222 24.7133 36.6845 21.5664 36.6845 18C36.6845 14.3916 37.4222 11.2238 38.8977 8.4965C40.3731 5.76923 42.4388 3.67133 45.0947 2.2028C47.7505 0.734266 50.8068 0 54.2637 0C57.594 0 60.566 0.713286 63.1797 2.13986C65.8356 3.56643 67.8802 5.6014 69.3135 8.24476C70.789 10.8462 71.5267 13.8462 71.5267 17.2448ZM62.3577 14.7273C62.3155 12.4615 61.4935 10.6573 59.8915 9.31469C58.2896 7.93007 56.3293 7.23776 54.0107 7.23776C51.8186 7.23776 49.9637 7.90909 48.4461 9.25175C46.9706 10.5524 46.0643 12.3776 45.727 14.7273H62.3577Z" fill="white"/>
<path d="M125.215 36C122.348 36 119.777 35.4965 117.5 34.4895C115.224 33.4406 113.411 32.035 112.062 30.2727C110.755 28.5105 110.039 26.5594 109.912 24.4196H118.828C118.997 25.7622 119.65 26.8741 120.788 27.7552C121.969 28.6364 123.423 29.0769 125.152 29.0769C126.838 29.0769 128.145 28.7413 129.072 28.0699C130.042 27.3986 130.527 26.5385 130.527 25.4895C130.527 24.3566 129.936 23.5175 128.756 22.972C127.618 22.3846 125.784 21.7552 123.255 21.0839C120.641 20.4545 118.491 19.8042 116.805 19.1329C115.161 18.4615 113.727 17.4336 112.505 16.049C111.324 14.6643 110.734 12.7972 110.734 10.4476C110.734 8.51748 111.282 6.75524 112.378 5.16084C113.516 3.56643 115.118 2.30769 117.184 1.38462C119.292 0.461539 121.758 0 124.583 0C128.756 0 132.086 1.04895 134.574 3.14685C137.061 5.2028 138.431 7.99301 138.684 11.5175H130.21C130.084 10.1329 129.494 9.04196 128.44 8.24476C127.428 7.40559 126.058 6.98601 124.33 6.98601C122.728 6.98601 121.484 7.27972 120.599 7.86713C119.756 8.45455 119.334 9.27273 119.334 10.3217C119.334 11.4965 119.924 12.3986 121.105 13.028C122.285 13.6154 124.119 14.2238 126.606 14.8531C129.135 15.4825 131.222 16.1329 132.866 16.8042C134.51 17.4755 135.923 18.5245 137.103 19.951C138.325 21.3357 138.958 23.1818 139 25.4895C139 27.5035 138.431 29.3077 137.293 30.9021C136.197 32.4965 134.595 33.7552 132.487 34.6783C130.421 35.5594 127.997 36 125.215 36Z" fill="white"/>
<path d="M117 8L106.655 43H97.0133L90.5639 18.5505L84.1145 43H74.4084L64 8H73.0675L79.3253 34.6606L86.094 8H95.5446L102.186 34.5975L108.443 8H117Z" fill="#1CC2C1"/>
<path d="M111 38.0013C111 37.0294 111.189 36.1673 111.568 35.4152C111.958 34.6631 112.481 34.0846 113.135 33.6796C113.801 33.2746 114.541 33.0721 115.356 33.0721C116.068 33.0721 116.688 33.2167 117.216 33.506C117.755 33.7953 118.186 34.1598 118.507 34.5995V33.2283H120.935V42.8438H118.507V41.4379C118.197 41.8892 117.767 42.2652 117.216 42.5661C116.676 42.8554 116.051 43 115.339 43C114.536 43 113.801 42.7917 113.135 42.3752C112.481 41.9586 111.958 41.3743 111.568 40.6222C111.189 39.8585 111 38.9849 111 38.0013ZM118.507 38.036C118.507 37.4459 118.392 36.9426 118.163 36.526C117.933 36.0979 117.623 35.7739 117.233 35.5541C116.843 35.3227 116.424 35.2069 115.976 35.2069C115.528 35.2069 115.115 35.3169 114.736 35.5367C114.358 35.7566 114.048 36.0806 113.807 36.5087C113.577 36.9252 113.462 37.4228 113.462 38.0013C113.462 38.5799 113.577 39.089 113.807 39.5287C114.048 39.9568 114.358 40.2866 114.736 40.518C115.127 40.7494 115.54 40.8652 115.976 40.8652C116.424 40.8652 116.843 40.7552 117.233 40.5354C117.623 40.304 117.933 39.98 118.163 39.5634C118.392 39.1353 118.507 38.6262 118.507 38.036Z" fill="#1CC2C1"/>
<path d="M125.27 30V42.8438H122.859V30H125.27Z" fill="#1CC2C1"/>
<path d="M130.027 35.2243V39.8758C130.027 40.1998 130.102 40.437 130.251 40.5874C130.412 40.7263 130.676 40.7957 131.043 40.7957H132.162V42.8438H130.647C128.615 42.8438 127.6 41.8487 127.6 39.8585V35.2243H126.463V33.2283H127.6V30.8505H130.027V33.2283H132.162V35.2243H130.027Z" fill="#1CC2C1"/>
<path d="M142.333 37.8278C142.333 38.1749 142.31 38.4873 142.264 38.765H135.291C135.348 39.4593 135.589 40.0031 136.014 40.3965C136.439 40.7899 136.961 40.9866 137.581 40.9866C138.476 40.9866 139.113 40.599 139.492 39.8238H142.092C141.817 40.7494 141.289 41.5131 140.508 42.1148C139.728 42.7049 138.769 43 137.633 43C136.714 43 135.888 42.7975 135.153 42.3925C134.43 41.976 133.862 41.3916 133.449 40.6395C133.047 39.8874 132.846 39.0196 132.846 38.036C132.846 37.0409 133.047 36.1673 133.449 35.4152C133.85 34.6631 134.413 34.0846 135.136 33.6796C135.859 33.2746 136.691 33.0721 137.633 33.0721C138.539 33.0721 139.349 33.2688 140.06 33.6622C140.784 34.0556 141.34 34.6168 141.731 35.3458C142.132 36.0632 142.333 36.8905 142.333 37.8278ZM139.837 37.1335C139.825 36.5087 139.601 36.0111 139.165 35.6409C138.729 35.259 138.195 35.0681 137.564 35.0681C136.967 35.0681 136.462 35.2532 136.049 35.6235C135.647 35.9822 135.4 36.4855 135.308 37.1335H139.837Z" fill="#1CC2C1"/>
<path d="M146.073 34.721C146.383 34.2118 146.785 33.8126 147.278 33.5234C147.783 33.2341 148.357 33.0895 149 33.0895V35.6409H148.363C147.605 35.6409 147.031 35.8202 146.641 36.1789C146.262 36.5376 146.073 37.1624 146.073 38.0534V42.8438H143.662V33.2283H146.073V34.721Z" fill="#1CC2C1"/>
</svg>
